<svg width="22" height="22" viewBox="0 0 22 22" fill="none" xmlns="http://www.w3.org/2000/svg">
<path d="M14.7254 7.62256C14.7254 7.52803 14.648 7.45068 14.5535 7.45068L13.1355 7.45713L11 10.003L8.86657 7.45928L7.44646 7.45283C7.35193 7.45283 7.27458 7.52803 7.27458 7.62471C7.27458 7.66553 7.28962 7.7042 7.3154 7.73643L10.1105 11.0665L7.3154 14.3944C7.28944 14.4259 7.27504 14.4653 7.27458 14.5062C7.27458 14.6007 7.35193 14.678 7.44646 14.678L8.86657 14.6716L11 12.1257L13.1334 14.6694L14.5513 14.6759C14.6459 14.6759 14.7232 14.6007 14.7232 14.504C14.7232 14.4632 14.7082 14.4245 14.6824 14.3923L11.8916 11.0644L14.6867 7.73428C14.7125 7.7042 14.7254 7.66338 14.7254 7.62256Z" fill="white"/>
<path d="M11 1.39648C5.68477 1.39648 1.375 5.70625 1.375 11.0215C1.375 16.3367 5.68477 20.6465 11 20.6465C16.3152 20.6465 20.625 16.3367 20.625 11.0215C20.625 5.70625 16.3152 1.39648 11 1.39648ZM11 19.0137C6.58711 19.0137 3.00781 15.4344 3.00781 11.0215C3.00781 6.60859 6.58711 3.0293 11 3.0293C15.4129 3.0293 18.9922 6.60859 18.9922 11.0215C18.9922 15.4344 15.4129 19.0137 11 19.0137Z" fill="white"/>
</svg>
