<svg width="17" height="17" viewBox="0 0 17 17" fill="none" xmlns="http://www.w3.org/2000/svg">
<path fill-rule="evenodd" clip-rule="evenodd" d="M14.1026 2.9289C13.3749 2.19642 12.5091 1.61563 11.5554 1.22016C10.6016 0.824684 9.57887 0.622401 8.54637 0.625025C4.21688 0.625025 0.692375 4.14865 0.690625 8.4799C0.690625 9.86415 1.052 11.2152 1.73887 12.4069L0.625 16.4765L4.78912 15.3837C5.94097 16.0107 7.23142 16.3395 8.54287 16.34H8.54637C12.875 16.34 16.3995 12.8164 16.4012 8.48515C16.4042 7.45307 16.2026 6.43064 15.8081 5.47695C15.4135 4.52326 14.8339 3.65723 14.1026 2.9289V2.9289ZM8.54637 15.0144H8.54375C7.37433 15.0145 6.22643 14.6999 5.2205 14.1035L4.9825 13.9618L2.5115 14.6102L3.17037 12.2013L3.0155 11.9545C2.36169 10.9136 2.01558 9.70908 2.01713 8.4799C2.01888 4.88015 4.9475 1.95153 8.549 1.95153C9.40672 1.94962 10.2563 2.11785 11.0486 2.44647C11.8408 2.77509 12.5601 3.25759 13.1646 3.86603C13.7724 4.47156 14.2542 5.19156 14.582 5.9844C14.9099 6.77724 15.0774 7.6272 15.0747 8.48515C15.073 12.0849 12.1444 15.0144 8.54637 15.0144ZM12.1277 10.124C11.9309 10.0252 10.9666 9.5509 10.7864 9.48528C10.607 9.41965 10.4766 9.38727 10.3454 9.58327C10.2141 9.77927 9.83787 10.2211 9.72325 10.3524C9.60862 10.4836 9.494 10.4994 9.298 10.4014C9.102 10.3034 8.46937 10.096 7.7195 9.42753C7.13587 8.9069 6.74212 8.26465 6.6275 8.06777C6.51287 7.8709 6.61525 7.76503 6.71412 7.66703C6.8025 7.57953 6.91012 7.43777 7.00812 7.32315C7.10612 7.20852 7.1385 7.12715 7.20412 6.9959C7.26975 6.86465 7.23737 6.75002 7.1875 6.65202C7.1385 6.55315 6.74562 5.58715 6.582 5.19428C6.42362 4.81365 6.26175 4.8644 6.141 4.85915C6.01594 4.85404 5.89079 4.8517 5.76562 4.85215C5.6661 4.85469 5.56817 4.87776 5.47798 4.91992C5.38779 4.96208 5.30728 5.02242 5.2415 5.09715C5.06125 5.29403 4.55462 5.76828 4.55462 6.73428C4.55462 7.70028 5.25812 8.6339 5.35612 8.76515C5.45412 8.8964 6.74037 10.8783 8.70912 11.7288C9.17812 11.9309 9.54387 12.0517 9.82825 12.1427C10.2981 12.2923 10.726 12.2704 11.0646 12.2205C11.4417 12.1645 12.2257 11.7463 12.3894 11.2878C12.553 10.8293 12.553 10.4364 12.504 10.3542C12.455 10.2719 12.3229 10.222 12.1277 10.124" fill="#84FF9F"/>
</svg>
