<svg width="33" height="33" viewBox="0 0 33 33" fill="none" xmlns="http://www.w3.org/2000/svg">
<path d="M14.025 4.95001C15.7498 4.94972 17.439 5.44096 18.8946 6.36619C20.3502 7.29141 21.5121 8.6123 22.244 10.1741C22.9759 11.7359 23.2475 13.474 23.0271 15.1846C22.8067 16.8953 22.1034 18.5077 20.9995 19.833L27.8091 26.6409C27.9553 26.7864 28.0416 26.9814 28.0511 27.1874C28.0607 27.3935 27.9927 27.5956 27.8606 27.754C27.7285 27.9124 27.5419 28.0155 27.3375 28.0431C27.1331 28.0708 26.9258 28.0208 26.7564 27.9032L26.6409 27.8091L19.833 20.9996C18.713 21.932 17.3849 22.5809 15.961 22.8915C14.5372 23.2021 13.0595 23.1652 11.6529 22.784C10.2463 22.4028 8.95222 21.6884 7.88009 20.7013C6.80796 19.7142 5.98932 18.4834 5.49341 17.1131C4.99751 15.7427 4.83892 14.2731 5.03107 12.8285C5.22322 11.3839 5.76045 10.0068 6.59732 8.8137C7.43419 7.62061 8.54608 6.64662 9.83896 5.9741C11.1318 5.30158 12.5677 4.95031 14.025 4.95001ZM14.025 6.60001C12.0558 6.60001 10.1672 7.38229 8.77472 8.77474C7.38226 10.1672 6.59999 12.0558 6.59999 14.025C6.59999 15.9942 7.38226 17.8828 8.77472 19.2753C10.1672 20.6677 12.0558 21.45 14.025 21.45C15.9942 21.45 17.8828 20.6677 19.2753 19.2753C20.6677 17.8828 21.45 15.9942 21.45 14.025C21.45 12.0558 20.6677 10.1672 19.2753 8.77474C17.8828 7.38229 15.9942 6.60001 14.025 6.60001Z" fill="white"/>
</svg>
