<svg width="18" height="14" viewBox="0 0 18 14" fill="none" xmlns="http://www.w3.org/2000/svg">
<path d="M17.7323 1.70269C17.106 1.98019 16.4333 2.16769 15.726 2.25244C16.4558 1.81578 17.0017 1.12854 17.262 0.318936C16.5764 0.726178 15.826 1.01283 15.0435 1.16644C14.5173 0.604585 13.8203 0.23218 13.0608 0.107041C12.3012 -0.018098 11.5216 0.111029 10.8429 0.474375C10.1643 0.837721 9.62459 1.41496 9.30762 2.11646C8.99066 2.81797 8.91416 3.6045 9.09001 4.35394C7.70077 4.28418 6.34173 3.9231 5.10108 3.29411C3.86042 2.66513 2.76589 1.78231 1.88851 0.702936C1.58851 1.22044 1.41601 1.82044 1.41601 2.45944C1.41567 3.03468 1.55733 3.60112 1.82842 4.10848C2.0995 4.61585 2.49163 5.04846 2.97001 5.36794C2.41522 5.35028 1.87266 5.20037 1.38751 4.93069V4.97569C1.38745 5.78249 1.66653 6.56447 2.1774 7.18893C2.68826 7.8134 3.39944 8.24188 4.19026 8.40169C3.6756 8.54097 3.13601 8.56149 2.61226 8.46169C2.83538 9.1559 3.27001 9.76296 3.85528 10.1979C4.44056 10.6328 5.1472 10.8738 5.87626 10.8872C4.63863 11.8587 3.11017 12.3858 1.53676 12.3834C1.25804 12.3835 0.979566 12.3672 0.702759 12.3347C2.29987 13.3616 4.15901 13.9066 6.05776 13.9044C12.4853 13.9044 15.999 8.58094 15.999 3.96394C15.999 3.81394 15.9953 3.66244 15.9885 3.51244C16.672 3.01817 17.2619 2.40611 17.7308 1.70494L17.7323 1.70269Z" fill="#6FB1FF"/>
</svg>
