<svg width="24" height="24" viewBox="0 0 24 24" fill="none" xmlns="http://www.w3.org/2000/svg">
<path d="M11.9999 0.333344C12.3093 0.333344 12.6061 0.45626 12.8249 0.675052C13.0437 0.893845 13.1666 1.19059 13.1666 1.50001V2.66668C13.1666 2.9761 13.0437 3.27284 12.8249 3.49163C12.6061 3.71043 12.3093 3.83334 11.9999 3.83334C11.6905 3.83334 11.3938 3.71043 11.175 3.49163C10.9562 3.27284 10.8333 2.9761 10.8333 2.66668V1.50001C10.8333 1.19059 10.9562 0.893845 11.175 0.675052C11.3938 0.45626 11.6905 0.333344 11.9999 0.333344ZM3.00842 3.00851C3.2272 2.78979 3.52389 2.66693 3.83325 2.66693C4.14261 2.66693 4.4393 2.78979 4.65809 3.00851L5.82475 4.17518C6.03727 4.39521 6.15486 4.68992 6.15221 4.99581C6.14955 5.30171 6.02685 5.59432 5.81054 5.81063C5.59423 6.02694 5.30162 6.14964 4.99572 6.1523C4.68982 6.15496 4.39512 6.03736 4.17509 5.82484L3.00842 4.65818C2.7897 4.43939 2.66683 4.1427 2.66683 3.83334C2.66683 3.52399 2.7897 3.22729 3.00842 3.00851ZM19.3418 3.00851C19.4494 2.89708 19.5781 2.8082 19.7204 2.74706C19.8628 2.68591 20.0159 2.65373 20.1708 2.65238C20.3257 2.65104 20.4793 2.68056 20.6227 2.73922C20.7661 2.79788 20.8963 2.88451 21.0059 2.99405C21.1154 3.10359 21.2021 3.23385 21.2607 3.37723C21.3194 3.52061 21.3489 3.67424 21.3475 3.82915C21.3462 3.98405 21.314 4.13714 21.2529 4.27948C21.1917 4.42182 21.1028 4.55056 20.9914 4.65818L19.8248 5.82484C19.7171 5.93627 19.5884 6.02515 19.4461 6.0863C19.3037 6.14744 19.1506 6.17962 18.9957 6.18097C18.8408 6.18232 18.6872 6.1528 18.5438 6.09414C18.4004 6.03548 18.2702 5.94885 18.1606 5.8393C18.0511 5.72976 17.9645 5.5995 17.9058 5.45612C17.8471 5.31274 17.8176 5.15912 17.819 5.00421C17.8203 4.8493 17.8525 4.69621 17.9136 4.55387C17.9748 4.41153 18.0637 4.2828 18.1751 4.17518L19.3418 3.00851ZM11.9999 8.50001C11.0717 8.50001 10.1814 8.86876 9.52505 9.52514C8.86867 10.1815 8.49992 11.0718 8.49992 12C8.49992 12.9283 8.86867 13.8185 9.52505 14.4749C10.1814 15.1313 11.0717 15.5 11.9999 15.5C12.9282 15.5 13.8184 15.1313 14.4748 14.4749C15.1312 13.8185 15.4999 12.9283 15.4999 12C15.4999 11.0718 15.1312 10.1815 14.4748 9.52514C13.8184 8.86876 12.9282 8.50001 11.9999 8.50001ZM6.16659 12C6.16659 10.4529 6.78117 8.96918 7.87513 7.87522C8.96909 6.78126 10.4528 6.16668 11.9999 6.16668C13.547 6.16668 15.0307 6.78126 16.1247 7.87522C17.2187 8.96918 17.8333 10.4529 17.8333 12C17.8333 13.5471 17.2187 15.0308 16.1247 16.1248C15.0307 17.2188 13.547 17.8333 11.9999 17.8333C10.4528 17.8333 8.96909 17.2188 7.87513 16.1248C6.78117 15.0308 6.16659 13.5471 6.16659 12ZM0.333252 12C0.333252 11.6906 0.456168 11.3938 0.674961 11.1751C0.893753 10.9563 1.1905 10.8333 1.49992 10.8333H2.66659C2.976 10.8333 3.27275 10.9563 3.49154 11.1751C3.71034 11.3938 3.83325 11.6906 3.83325 12C3.83325 12.3094 3.71034 12.6062 3.49154 12.825C3.27275 13.0438 2.976 13.1667 2.66659 13.1667H1.49992C1.1905 13.1667 0.893753 13.0438 0.674961 12.825C0.456168 12.6062 0.333252 12.3094 0.333252 12ZM20.1666 12C20.1666 11.6906 20.2895 11.3938 20.5083 11.1751C20.7271 10.9563 21.0238 10.8333 21.3333 10.8333H22.4999C22.8093 10.8333 23.1061 10.9563 23.3249 11.1751C23.5437 11.3938 23.6666 11.6906 23.6666 12C23.6666 12.3094 23.5437 12.6062 23.3249 12.825C23.1061 13.0438 22.8093 13.1667 22.4999 13.1667H21.3333C21.0238 13.1667 20.7271 13.0438 20.5083 12.825C20.2895 12.6062 20.1666 12.3094 20.1666 12ZM5.82475 18.1752C6.04347 18.394 6.16634 18.6907 6.16634 19C6.16634 19.3094 6.04347 19.6061 5.82475 19.8248L4.65809 20.9915C4.43805 21.204 4.14335 21.3216 3.83745 21.319C3.53155 21.3163 3.23894 21.1936 3.02263 20.9773C2.80632 20.761 2.68362 20.4684 2.68097 20.1625C2.67831 19.8566 2.7959 19.5619 3.00842 19.3418L4.17509 18.1752C4.39387 17.9565 4.69056 17.8336 4.99992 17.8336C5.30928 17.8336 5.60597 17.9565 5.82475 18.1752ZM18.1751 18.1752C18.3939 17.9565 18.6906 17.8336 18.9999 17.8336C19.3093 17.8336 19.606 17.9565 19.8248 18.1752L20.9914 19.3418C21.2039 19.5619 21.3215 19.8566 21.3189 20.1625C21.3162 20.4684 21.1935 20.761 20.9772 20.9773C20.7609 21.1936 20.4683 21.3163 20.1624 21.319C19.8565 21.3216 19.5618 21.204 19.3418 20.9915L18.1751 19.8248C17.9564 19.6061 17.8335 19.3094 17.8335 19C17.8335 18.6907 17.9564 18.394 18.1751 18.1752ZM11.9999 20.1667C12.3093 20.1667 12.6061 20.2896 12.8249 20.5084C13.0437 20.7272 13.1666 21.0239 13.1666 21.3333V22.5C13.1666 22.8094 13.0437 23.1062 12.8249 23.325C12.6061 23.5438 12.3093 23.6667 11.9999 23.6667C11.6905 23.6667 11.3938 23.5438 11.175 23.325C10.9562 23.1062 10.8333 22.8094 10.8333 22.5V21.3333C10.8333 21.0239 10.9562 20.7272 11.175 20.5084C11.3938 20.2896 11.6905 20.1667 11.9999 20.1667Z" fill="white"/>
</svg>
