<svg width="26" height="26" viewBox="0 0 26 26" fill="none" xmlns="http://www.w3.org/2000/svg">
<path d="M13.1643 2.13757C13.2358 2.22197 13.2861 2.32216 13.3111 2.42986C13.3361 2.53756 13.3352 2.64968 13.3083 2.75693C12.7028 5.17121 12.2822 8.81028 13.8728 11.9916C14.6705 13.5859 16.0977 14.7959 17.745 15.7086C19.3885 16.6196 21.1993 17.2046 22.685 17.5704C22.7899 17.5964 22.8874 17.6465 22.9696 17.7167C23.0518 17.7869 23.1166 17.8753 23.1588 17.9748C23.2009 18.0744 23.2194 18.1824 23.2125 18.2903C23.2057 18.3982 23.1739 18.503 23.1195 18.5965C22.1399 20.2841 20.734 21.6848 19.0428 22.6582C17.3515 23.6316 15.4342 24.1435 13.4828 24.1429C7.32826 24.1429 2.33997 19.1536 2.33997 13C2.33997 7.15 6.84633 2.35486 12.5765 1.89336C12.6869 1.88442 12.7977 1.90191 12.9 1.94438C13.0022 1.98686 13.0928 2.05308 13.1643 2.13757ZM11.7343 3.406C7.18433 4.22964 3.73283 8.21136 3.73283 13C3.73283 18.3848 8.09712 22.75 13.4828 22.75C16.7495 22.75 19.643 21.1436 21.4128 18.6736C20.0553 18.2864 18.5138 17.7274 17.0699 16.9279C15.2833 15.938 13.5952 14.5507 12.6276 12.6146C11.0333 9.42778 11.2338 5.92336 11.7353 3.406H11.7343Z" fill="white"/>
</svg>
