<svg width="14" height="14" viewBox="0 0 14 14" fill="none" xmlns="http://www.w3.org/2000/svg">
<path d="M6.99333 0.333252C3.31467 0.333252 0.333332 3.31525 0.333332 6.99325C0.333332 9.81459 2.08867 12.2266 4.56667 13.1973C4.508 12.6706 4.456 11.8599 4.58933 11.2853C4.71067 10.7653 5.37067 7.97459 5.37067 7.97459C5.37067 7.97459 5.17133 7.57525 5.17133 6.98525C5.17133 6.05992 5.708 5.36859 6.37667 5.36859C6.94533 5.36859 7.21933 5.79525 7.21933 6.30659C7.21933 6.87859 6.85533 7.73259 6.668 8.52459C6.51133 9.18725 7.00067 9.72792 7.654 9.72792C8.83733 9.72792 9.748 8.47992 9.748 6.67792C9.748 5.08325 8.602 3.96859 6.966 3.96859C5.07067 3.96859 3.958 5.38992 3.958 6.85859C3.958 7.43059 4.17867 8.04459 4.454 8.37859C4.4774 8.40374 4.49392 8.4345 4.50198 8.46789C4.51003 8.50129 4.50935 8.5362 4.5 8.56925C4.44933 8.77925 4.33667 9.23192 4.31533 9.32459C4.286 9.44659 4.21867 9.47259 4.092 9.41392C3.26067 9.02659 2.74067 7.81059 2.74067 6.83325C2.74067 4.73259 4.26667 2.80325 7.14133 2.80325C9.452 2.80325 11.2473 4.44925 11.2473 6.64992C11.2473 8.94592 9.8 10.7919 7.79133 10.7919C7.116 10.7919 6.482 10.4419 6.26467 10.0279L5.84933 11.6106C5.69933 12.1893 5.29333 12.9146 5.022 13.3573C5.66074 13.5545 6.32551 13.6545 6.994 13.6539C10.672 13.6539 13.654 10.6719 13.654 6.99392C13.654 3.31592 10.6713 0.333252 6.99333 0.333252Z" fill="#FF5151"/>
</svg>
