<svg width="22" height="20" viewBox="0 0 22 20" fill="none" xmlns="http://www.w3.org/2000/svg">
<path d="M0.333313 2.00008C0.333313 1.64646 0.473789 1.30732 0.723837 1.05727C0.973886 0.807224 1.31302 0.666748 1.66665 0.666748H20.3333C20.6869 0.666748 21.0261 0.807224 21.2761 1.05727C21.5262 1.30732 21.6666 1.64646 21.6666 2.00008C21.6666 2.3537 21.5262 2.69284 21.2761 2.94289C21.0261 3.19294 20.6869 3.33341 20.3333 3.33341H1.66665C1.31302 3.33341 0.973886 3.19294 0.723837 2.94289C0.473789 2.69284 0.333313 2.3537 0.333313 2.00008Z" fill="white"/>
<path d="M0.333313 18.0001C0.333313 17.6465 0.473789 17.3073 0.723837 17.0573C0.973886 16.8072 1.31302 16.6667 1.66665 16.6667H20.3333C20.6869 16.6667 21.0261 16.8072 21.2761 17.0573C21.5262 17.3073 21.6666 17.6465 21.6666 18.0001C21.6666 18.3537 21.5262 18.6928 21.2761 18.9429C21.0261 19.1929 20.6869 19.3334 20.3333 19.3334H1.66665C1.31302 19.3334 0.973886 19.1929 0.723837 18.9429C0.473789 18.6928 0.333313 18.3537 0.333313 18.0001Z" fill="white"/>
<path d="M1.66665 8.66675C1.31302 8.66675 0.973886 8.80722 0.723837 9.05727C0.473789 9.30732 0.333313 9.64646 0.333313 10.0001C0.333313 10.3537 0.473789 10.6928 0.723837 10.9429C0.973886 11.1929 1.31302 11.3334 1.66665 11.3334H12.3333C12.6869 11.3334 13.0261 11.1929 13.2761 10.9429C13.5262 10.6928 13.6666 10.3537 13.6666 10.0001C13.6666 9.64646 13.5262 9.30732 13.2761 9.05727C13.0261 8.80722 12.6869 8.66675 12.3333 8.66675H1.66665Z" fill="white"/>
</svg>
